<svg width="93" height="92" viewBox="0 0 93 92" fill="none" xmlns="http://www.w3.org/2000/svg">
<rect width="93" height="92" fill="#42045A"/>
<path fill-rule="evenodd" clip-rule="evenodd" d="M64.2774 58.1428C62.6918 61.9306 60.5509 63.613 57.1423 63.613C54.3676 63.613 51.6729 61.9306 50.4838 59.4053C49.6907 57.6379 49.3738 56.123 49.3738 52.9256H68.4777C68.4777 49.2219 68.0816 46.95 67.0508 44.5936C65.2278 40.3014 61.5813 37.8605 57.0627 37.8605C49.8485 37.8605 44.8547 43.8357 44.8547 52.6731C44.8547 61.3416 49.6903 67.1483 56.9036 67.1483C62.2148 67.1483 66.3373 64.1185 68.0025 58.9848L64.2774 58.1428ZM49.6121 49.6428C49.849 46.9495 50.3251 45.6026 51.435 44.0877C52.9411 42.2363 54.8437 41.1423 57.1423 41.1423C61.344 41.1423 63.8804 44.3406 64.0396 49.6428H49.6121ZM87.4247 63.445C85.9978 63.6975 85.2047 63.7815 84.253 63.7815C81.4792 63.7815 80.0513 62.3506 80.0513 59.4048V31.2114L76.0088 31.3799V58.7318C76.0088 64.3705 78.5457 67.2318 83.54 67.2318C84.7291 67.2318 85.6008 67.1478 87.4247 66.8953V63.445ZM6.16995 62.6031C6.16995 60.1627 7.9934 58.2264 10.292 58.2264C12.5907 58.2264 14.4141 60.1627 14.4141 62.6031C14.4141 65.0435 12.5907 66.9798 10.292 66.9798C7.9934 66.9798 6.16995 65.0439 6.16995 62.6031ZM38.6718 67.1478V49.8958C38.6718 45.9396 38.3544 43.8357 37.8001 42.4892C36.3732 39.3754 33.5194 37.4395 30.1107 37.4395C26.5434 37.4395 24.4035 38.8705 21.7079 43.3307V38.197H17.9819V67.1478H22.0248V50.7363C22.0248 45.2661 25.1161 41.1423 29.3968 41.1423C32.8846 41.1423 34.7871 43.5832 34.7871 48.1279V67.1478H38.6718Z" fill="#0C0E0F"/>
<path fill-rule="evenodd" clip-rule="evenodd" d="M56.9841 37.8601H86.5521V41.1424H56.9841V37.8601ZM38.2758 63.8655H57.1423V67.0638H38.2758V63.8655ZM17.1097 32.5584V20.8596H15.0485L11.7985 30.2015L8.46906 20.8596H6.48737V32.5584H7.59735V22.2905L11.2438 32.5584H12.1951L15.7624 22.2905V32.5584H17.1097ZM19.8053 32.5584H21.0736V23.8899H19.8053V32.5584ZM19.8053 22.2905H21.1531V20.8596H19.8053V22.2905ZM28.4456 29.5285C28.2077 30.9594 27.4943 31.7164 26.4639 31.7164C25.1161 31.7164 24.3235 30.37 24.3235 28.1816C24.3235 26.0777 25.1952 24.7313 26.5434 24.7313C27.5739 24.7313 28.2873 25.4888 28.4456 26.9192L29.6347 26.6667C29.3177 24.7308 28.2077 23.6369 26.5434 23.6369C24.4031 23.6369 22.9761 25.4883 22.9761 28.1816C22.9761 30.959 24.3239 32.7264 26.4639 32.7264C27.336 32.7264 28.0495 32.4739 28.6838 31.8004C29.1595 31.2955 29.3973 30.7905 29.6351 29.6965L28.4456 29.5285ZM32.6472 32.5584V27.9296C32.7263 26.1622 33.9154 24.8158 35.4219 24.9838V23.6374H34.9463C34.3911 23.6374 33.7572 23.9743 33.3607 24.3948C33.1229 24.8158 32.9642 25.0683 32.5681 25.9097V23.8903H31.4581V32.5588L32.6472 32.5584ZM39.7023 23.6369C38.5132 23.6369 37.5619 24.1419 36.8484 25.1518C36.2937 25.9093 35.9767 26.9192 35.9767 28.1816C35.9767 29.4441 36.2145 30.454 36.7693 31.2955C37.4036 32.3054 38.2758 32.7264 39.544 32.7264C41.764 32.7264 43.27 30.875 43.27 28.2656C43.2696 25.5728 41.8431 23.6369 39.7023 23.6369ZM39.6231 24.7313C40.2575 24.7313 40.8914 25.1518 41.2879 25.6568C41.6844 26.2462 41.9222 27.0877 41.9222 28.1816C41.9222 30.3695 41.0505 31.7164 39.6231 31.7164C38.1962 31.7164 37.3241 30.37 37.3241 28.1816C37.3241 27.1717 37.5619 26.2462 37.8788 25.7408C38.2758 25.1518 38.9888 24.7313 39.6231 24.7313ZM44.1417 30.2855C44.3004 31.043 44.5378 31.4639 45.0139 31.8004C45.6478 32.4739 46.5991 32.7264 47.7882 32.7264C49.7699 32.7264 51.1177 31.7164 51.1177 30.1175C51.1177 28.6866 50.3246 27.8451 48.6599 27.5927L47.0747 27.2557C46.1234 27.0872 45.7269 26.6667 45.7269 26.0777C45.7269 25.2363 46.4404 24.7313 47.5504 24.7313C48.5016 24.7313 49.2151 25.1518 49.6116 26.1622L50.8007 25.8257C50.3246 24.3948 49.2151 23.6374 47.5504 23.6374C45.6478 23.6374 44.4587 24.6473 44.4587 26.1622C44.4587 27.4247 45.2513 28.3506 46.6782 28.6026L48.4221 28.9396C49.2938 29.108 49.7699 29.613 49.7699 30.286C49.7699 31.1274 48.9768 31.7169 47.8673 31.7169C47.0747 31.7169 46.3613 31.4644 45.8856 31.0439C45.6478 30.7914 45.4891 30.5385 45.3309 30.034L44.1417 30.2855ZM56.1124 23.6369C54.9228 23.6369 53.9715 24.1419 53.1789 25.1518C52.6242 25.9093 52.3072 26.9192 52.3072 28.1816C52.3072 29.4441 52.6242 30.454 53.1003 31.2955C53.8133 32.3054 54.685 32.7264 55.875 32.7264C58.095 32.7264 59.6006 30.875 59.6006 28.2656C59.6001 25.5728 58.2523 23.6369 56.1124 23.6369ZM55.9532 24.7313C56.6671 24.7313 57.301 25.1518 57.6971 25.6568C58.0941 26.2462 58.2519 27.0877 58.2519 28.1816C58.2519 30.3695 57.3801 31.7164 55.9532 31.7164C54.5263 31.7164 53.7333 30.37 53.7333 28.1816C53.7333 27.1717 53.8924 26.2462 54.288 25.7408C54.6054 25.1518 55.3193 24.7313 55.9532 24.7313ZM64.9904 23.8899H63.0087C63.0087 22.9644 63.0087 22.8799 63.1679 22.5434C63.3261 21.9545 63.8809 21.702 64.6739 21.702C64.9909 21.702 65.15 21.702 65.467 21.786V20.692C64.9122 20.608 64.5952 20.608 64.2779 20.608C63.247 20.608 62.3753 21.113 62.0579 21.9545C61.8987 22.4594 61.8987 22.7959 61.8201 23.8903H60.3931V24.9843H61.8201V32.5588H63.0092V24.9843H64.9909V23.8899H64.9904ZM70.7777 31.6324C70.3807 31.7164 70.0638 31.7164 69.826 31.7164C68.9542 31.7164 68.4782 31.2959 68.4782 30.37V24.9838H70.302V23.8899H68.4782V21.6175L67.2891 21.7015L67.2099 23.8894H65.783V24.9833H67.2099V30.2015C67.2099 31.8844 68.003 32.8104 69.5877 32.8104C69.9046 32.8104 70.2225 32.7264 70.7772 32.7264L70.7777 31.6324ZM87.9799 39.6275V38.0285H88.4547V37.8601H87.266V38.0285H87.7417V39.6275H87.9799ZM90.2786 39.6275V37.8601H89.8816L89.4064 39.291L88.9308 37.8601H88.6138V39.6275H88.8516V38.1125L89.4064 39.6275H89.4855L90.0407 38.1125V39.6275H90.2786Z" fill="#0C0E0F"/>
</svg>
